<svg width="180" height="41" viewBox="0 0 180 41" fill="none" xmlns="http://www.w3.org/2000/svg">
<path d="M56.8645 34.2598V8.10598H67.0634C74.4227 8.10598 79.3186 13.375 79.3186 21.1814C79.3186 28.9877 74.4227 34.2567 67.0634 34.2567H56.8645V34.2598ZM60.8633 30.9702H66.3173C71.9223 30.9702 75.323 27.1965 75.323 21.1814C75.323 15.1663 71.9593 11.3926 66.3173 11.3926H60.8633V30.9702Z" fill="white"/>
<path d="M81.0575 11.9907V8.06898H85.0563V11.9907H81.0575ZM81.0575 34.2197V15.5393H85.0563V34.2197H81.0575Z" fill="white"/>
<path d="M86.6718 29.4749C86.6718 25.8892 89.2863 24.2059 93.211 23.5708L98.554 22.6736C99.3001 22.5626 99.7133 22.2265 99.7133 21.7024V21.4403C99.7133 19.683 98.033 18.3018 95.6775 18.3018C93.6211 18.3018 91.9038 19.2359 91.3427 20.9532H87.3439C87.868 17.6666 91.0436 15.0491 95.7885 15.0491C100.533 15.0491 103.86 17.4786 103.86 21.2893V34.2537H100.086V33.3935C100.086 32.6474 100.197 32.0123 100.533 31.3001L100.795 30.7019L100.758 30.6649L100.086 31.6731C98.665 33.8035 95.8255 34.7747 93.211 34.7747C89.3633 34.7747 86.6718 32.5703 86.6718 29.4687V29.4749ZM99.7102 27.8686V25.14L94.1421 26.0742C91.8267 26.4843 90.6305 27.3815 90.6305 29.2128C90.6305 30.7451 92.1628 31.7903 94.2531 31.7903C97.0556 31.7903 99.7071 30.184 99.7071 27.8686H99.7102Z" fill="white"/>
<path d="M106.727 34.2598V8.10598H116.926C124.285 8.10598 129.181 13.375 129.181 21.1814C129.181 28.9877 124.285 34.2567 116.926 34.2567H106.727V34.2598ZM110.726 30.9702H116.18C121.785 30.9702 125.186 27.1965 125.186 21.1814C125.186 15.1663 121.822 11.3926 116.18 11.3926H110.726V30.9702Z" fill="white"/>
<path d="M130.933 34.2598V8.10598H135.415L148.155 28.1707H148.343V8.10598H152.342V34.2598H147.859L135.119 14.1951H134.931V34.2598H130.933Z" fill="white"/>
<path d="M153.242 34.2598L163.891 8.10598H168.747L179.396 34.2598H175.323L172.483 27.3845H160.117L157.278 34.2598H153.242ZM161.424 24.1319H171.213L166.431 12.1757H166.206L161.424 24.1319Z" fill="white"/>
<path d="M8.14552 0.5H49.9954L41.8468 40.5H0L8.14552 0.5Z" fill="#00FF6F"/>
</svg>
