<svg width="582" height="130" viewBox="0 0 582 130" fill="none" xmlns="http://www.w3.org/2000/svg">
<g clip-path="url(#clip0_1135_1423)">
<path d="M184.44 109.5V24.67H217.52C241.39 24.67 257.27 41.76 257.27 67.08C257.27 92.4 241.39 109.49 217.52 109.49H184.44V109.5ZM197.41 98.83H215.1C233.28 98.83 244.31 86.59 244.31 67.08C244.31 47.57 233.4 35.33 215.1 35.33H197.41V98.83Z" fill="black"/>
<path d="M262.91 37.2701V24.55H275.88V37.2701H262.91ZM262.91 109.37V48.78H275.88V109.37H262.91Z" fill="black"/>
<path d="M281.12 93.9801C281.12 82.3501 289.6 76.8901 302.33 74.8301L319.66 71.9201C322.08 71.5601 323.42 70.4701 323.42 68.7701V67.9201C323.42 62.2201 317.97 57.7401 310.33 57.7401C303.66 57.7401 298.09 60.7701 296.27 66.3401H283.3C285 55.6801 295.3 47.1901 310.69 47.1901C326.08 47.1901 336.87 55.0701 336.87 67.4301V109.48H324.63V106.69C324.63 104.27 324.99 102.21 326.08 99.9001L326.93 97.9601L326.81 97.8401L324.63 101.11C320.02 108.02 310.81 111.17 302.33 111.17C289.85 111.17 281.12 104.02 281.12 93.9601V93.9801ZM323.41 88.7701V79.9201L305.35 82.9501C297.84 84.2801 293.96 87.1901 293.96 93.1301C293.96 98.1001 298.93 101.49 305.71 101.49C314.8 101.49 323.4 96.2801 323.4 88.7701H323.41Z" fill="black"/>
<path d="M346.17 109.5V24.67H379.25C403.12 24.67 419 41.76 419 67.08C419 92.4 403.12 109.49 379.25 109.49H346.17V109.5ZM359.14 98.83H376.83C395.01 98.83 406.04 86.59 406.04 67.08C406.04 47.57 395.13 35.33 376.83 35.33H359.14V98.83Z" fill="black"/>
<path d="M424.68 109.5V24.67H439.22L480.54 89.75H481.15V24.67H494.12V109.5H479.58L438.26 44.42H437.65V109.5H424.68Z" fill="black"/>
<path d="M497.04 109.5L531.58 24.67H547.33L581.87 109.5H568.66L559.45 87.2H519.34L510.13 109.5H497.04ZM523.58 76.65H555.33L539.82 37.87H539.09L523.58 76.65Z" fill="black"/>
<path d="M26.42 0H162.16L135.73 129.74H0L26.42 0Z" fill="#00FF6F"/>
</g>
<defs>
<clipPath id="clip0_1135_1423">
<rect width="581.87" height="129.74" fill="white"/>
</clipPath>
</defs>
</svg>
